<?xml version="1.0" standalone="no"?>
<!DOCTYPE svg PUBLIC "-//W3C//DTD SVG 1.0//EN" "http://www.w3.org/TR/2001/REC-SVG-20010904/DTD/svg10.dtd">
<svg xmlns="http://www.w3.org/2000/svg" xmlns:xlink="http://www.w3.org/1999/xlink" id="body_1" width="23" height="23">

<g transform="matrix(0.08984375 0 0 0.08984375 0 0)">
	<g>
        <path d="M127.99975 23.06353C 162.17738 23.06353 166.22539 23.193604 179.72247 23.809416C 192.20235 24.378992 198.97986 26.464222 203.49074 28.216648C 209.46494 30.53865 213.7294 33.31286 218.20827 37.791733C 222.68713 42.270607 225.46135 46.53506 227.78284 52.509262C 229.53578 57.020145 231.621 63.79765 232.19058 76.277016C 232.8064 89.774605 232.93646 93.82262 232.93646 128.00026C 232.93646 162.17789 232.8064 166.2259 232.19058 179.72298C 231.621 192.20287 229.53578 198.98036 227.78284 203.49124C 225.46135 209.46544 222.68713 213.7299 218.20827 218.20877C 213.7294 222.68765 209.46494 225.46185 203.49074 227.78336C 198.97986 229.53629 192.20235 231.62152 179.72247 232.19109C 166.22743 232.8069 162.17941 232.93698 127.99975 232.93698C 93.820076 232.93698 89.772064 232.8069 76.277016 232.19109C 63.797142 231.62152 57.019638 229.53629 52.509262 227.78336C 46.534554 225.46185 42.270096 222.68765 37.791225 218.20877C 33.31235 213.7299 30.538141 209.46544 28.216648 203.49124C 26.463715 198.98036 24.378485 192.20287 23.808908 179.7235C 23.193094 166.2259 23.063023 162.17789 23.063023 128.00026C 23.063023 93.82262 23.193094 89.774605 23.808908 76.27753C 24.378485 63.79765 26.463715 57.020145 28.216648 52.509262C 30.538141 46.53506 33.31235 42.270607 37.791225 37.791733C 42.270096 33.31286 46.534554 30.53865 52.509262 28.216648C 57.019638 26.464222 63.797142 24.378992 76.276505 23.809416C 89.7741 23.193604 93.822105 23.06353 127.99975 23.06353zM127.99975 0C 93.23678 0 88.87833 0.14734808 75.22576 0.77027476C 61.601147 1.3921852 52.29688 3.5556614 44.15463 6.7200885C 35.737495 9.991216 28.599245 14.367961 21.483349 21.483856C 14.367454 28.599752 9.990707 35.738003 6.71958 44.155136C 3.5551534 52.297386 1.3916771 61.601658 0.7697666 75.22627C 0.14683998 88.87833 0 93.23729 0 128.00026C 0 162.76321 0.14683998 167.12218 0.7697666 180.77423C 1.3916771 194.39885 3.5551534 203.70312 6.71958 211.84537C 9.990707 220.262 14.367454 227.40076 21.483349 234.51665C 28.599245 241.63255 35.737495 246.0093 44.15463 249.28043C 52.29688 252.44484 61.601147 254.60832 75.22576 255.23024C 88.87833 255.85316 93.23678 256 127.99975 256C 162.76271 256 167.12167 255.85316 180.77373 255.23024C 194.39835 254.60832 203.7026 252.44484 211.84486 249.28043C 220.262 246.0093 227.40025 241.63255 234.51614 234.51665C 241.63203 227.40076 246.00879 220.2625 249.2799 211.84537C 252.44434 203.70312 254.60782 194.39885 255.22972 180.77423C 255.85265 167.12218 256 162.76321 256 128.00026C 256 93.23729 255.85265 88.87833 255.22972 75.22627C 254.60782 61.601658 252.44434 52.297386 249.2799 44.155136C 246.00879 35.738003 241.63203 28.599752 234.51614 21.483856C 227.40025 14.367961 220.262 9.991216 211.84486 6.7200885C 203.7026 3.5556614 194.39835 1.3921852 180.77373 0.77027476C 167.12167 0.14734808 162.76271 0 127.99975 0zM127.99975 62.270313C 91.698265 62.270313 62.269802 91.69877 62.269802 128.00026C 62.269802 164.30174 91.698265 193.7302 127.99975 193.7302C 164.30122 193.7302 193.72969 164.30174 193.72969 128.00026C 193.72969 91.69877 164.30122 62.270313 127.99975 62.270313zM127.99975 170.66718C 104.43574 170.66718 85.332825 151.56425 85.332825 128.00026C 85.332825 104.43625 104.43574 85.333336 127.99975 85.333336C 151.56375 85.333336 170.66667 104.43625 170.66667 128.00026C 170.66667 151.56425 151.56375 170.66718 127.99975 170.66718zM211.68634 59.673428C 211.68634 68.15662 204.80975 75.03371 196.32657 75.03371C 187.84338 75.03371 180.9663 68.15662 180.9663 59.673428C 180.9663 51.190243 187.84338 44.313663 196.32657 44.313663C 204.80975 44.313663 211.68634 51.190243 211.68634 59.673428z" stroke="none" fill="#0A0A08" fill-rule="nonzero" />
	</g>
</g>
</svg>